<?xml version="1.0" encoding="UTF-8" standalone="no"?>
<!DOCTYPE svg PUBLIC "-//W3C//DTD SVG 1.1//EN" "http://www.w3.org/Graphics/SVG/1.1/DTD/svg11.dtd">
<svg width="100%" height="100%" viewBox="0 0 1885 437" version="1.1" xmlns="http://www.w3.org/2000/svg" xmlns:xlink="http://www.w3.org/1999/xlink" xml:space="preserve" xmlns:serif="http://www.serif.com/" style="fill-rule:evenodd;clip-rule:evenodd;stroke-linejoin:round;stroke-miterlimit:2;">
    <g transform="matrix(1,0,0,1,-266.441,-884.136)">
        <g id="Lager-1" serif:id="Lager 1">
            <g transform="matrix(1,0,0,1,1692.24,1154.15)">
                <path d="M0,-96.184C30.878,-102.001 59.433,-97.468 88.613,-86.535C84.175,-103.397 80.563,-119.172 75.83,-134.604C69.293,-155.913 60.593,-176.285 46.778,-194.155C44.237,-197.442 41.817,-197.772 39.591,-195.02C35.258,-189.666 30.243,-184.367 27.701,-178.149C19.134,-157.197 11.333,-135.922 3.687,-114.61C1.672,-108.994 1.273,-102.798 0,-96.184M321.689,-74.794C309.067,-73.464 297.409,-71.055 285.797,-71.261C262.874,-71.667 239.98,-73.582 217.069,-74.758C194.326,-75.926 171.592,-77.738 148.86,-74.101C140.815,-72.814 136.315,-67.146 131.858,-61.59C130.507,-59.906 131.177,-56.149 131.693,-53.492C137.93,-21.371 149.095,9.29 159.57,40.159C167.978,64.936 176.159,89.806 180.422,115.704C182.599,128.926 183.911,142.29 185.685,156.147C177.621,155.064 172.257,151.017 169.551,145.144C165.509,136.372 161.472,127.16 159.985,117.733C155.927,92.01 145.451,68.631 135.812,44.866C124.798,17.713 114.389,-9.692 102.97,-36.672C97.666,-49.205 89.309,-60.401 76.744,-66.247C69.528,-69.605 60.714,-70.124 52.535,-70.694C33.691,-72.006 15.053,-70.267 -3.207,-65.036C-7.288,-63.867 -10.08,-61.741 -12.397,-58.168C-29.397,-31.96 -40.841,-3.166 -51.895,25.825C-60.562,48.553 -68.716,71.499 -78.192,93.886C-84.747,109.375 -93.273,124.024 -100.682,139.164C-102.851,143.597 -104.046,148.498 -105.998,153.052C-107.352,156.212 -108.769,159.562 -111.003,162.075C-113.811,165.234 -117.715,167.106 -122.161,165.274C-126.095,163.654 -128.526,158.774 -127.802,154.049C-127.353,151.112 -126.745,148.145 -125.751,145.355C-116.048,118.11 -106.147,90.935 -96.496,63.672C-78.165,11.893 -59.59,-39.804 -41.893,-91.799C-35.085,-111.8 -30.605,-132.583 -24.63,-152.882C-22.395,-160.475 -18.428,-167.554 -16.131,-175.134C-12.728,-186.366 -10.659,-198.016 -7.014,-209.158C-2.708,-222.32 1.995,-235.442 7.78,-248.004C13.195,-259.759 23.212,-263.29 36.764,-259.631C47.759,-256.662 56.917,-251.283 63.304,-241.03C75.422,-221.575 83.446,-200.428 91.118,-179.036C98.1,-159.57 104.905,-140.01 112.889,-120.952C115.18,-115.484 120.505,-110.186 125.796,-107.283C141.319,-98.763 157.971,-94.276 176.104,-93.714C202.17,-92.905 228.17,-90.086 254.205,-88.222C270.451,-87.058 286.703,-85.941 302.966,-85.061C312.094,-84.568 317.531,-82.191 321.689,-74.794" style="fill:white;fill-rule:nonzero;"/>
            </g>
            <g transform="matrix(1,0,0,1,2151.16,1075.38)">
                <path d="M0,7.122C-8.112,13.742 -17.641,14.277 -27.016,14.395C-40.802,14.568 -54.601,13.657 -68.386,13.86C-81.158,14.048 -93.917,15.099 -106.682,15.756C-116.84,16.278 -118.856,11.392 -120.315,2.467C-121.06,-2.084 -117.419,-5.385 -113.489,-6.14C-106.617,-7.461 -99.219,-9.156 -92.561,-7.911C-69.257,-3.556 -45.893,-1.537 -22.216,-2.147C-15.571,-2.318 -8.967,-1.043 -3.547,3.429C-2.292,4.465 -1.271,5.783 0,7.122" style="fill:white;fill-rule:nonzero;"/>
            </g>
            <g transform="matrix(1,0,0,1,843.069,1151.32)">
                <path d="M0,-96.388C-0.849,-101.816 -0.847,-106.776 -2.44,-111.156C-10.968,-134.602 -19.63,-158.008 -28.882,-181.173C-30.947,-186.343 -35.322,-190.706 -39.101,-195.032C-41.507,-197.787 -43.944,-197.783 -46.666,-194.162C-70.458,-162.507 -79.285,-125.253 -87.788,-86.924C-59.201,-97.614 -30.763,-102.158 0,-96.388M-185.922,156.215C-183.301,138.669 -181.472,122.008 -178.227,105.628C-171.388,71.101 -158.097,38.475 -147.637,5.009C-141.572,-14.396 -136.774,-34.196 -131.306,-53.79C-129.894,-58.851 -131.589,-62.329 -134.997,-66.272C-143.236,-75.806 -154.472,-76 -165.12,-75.934C-188.049,-75.791 -210.977,-74.452 -233.892,-73.331C-256.309,-72.235 -278.703,-69.743 -301.157,-72.247C-307.672,-72.974 -314.107,-74.425 -321.192,-75.65C-317.293,-83.562 -310.563,-84.574 -304.049,-85.083C-272.234,-87.571 -240.401,-89.826 -208.568,-92.064C-192.309,-93.208 -175.89,-93.132 -159.81,-95.452C-143.045,-97.872 -126.83,-103.185 -114.932,-116.465C-112.398,-119.293 -111.128,-123.407 -109.769,-127.109C-101.051,-150.873 -92.595,-174.734 -83.802,-198.469C-77.504,-215.467 -69.923,-231.854 -59.125,-246.579C-51.783,-256.59 -31.776,-263.539 -20.12,-259.932C-13.611,-257.917 -9.458,-253.185 -6.874,-247.195C-3.926,-240.365 -1.965,-233.077 1.314,-226.427C7.633,-213.612 8.965,-199.441 13.195,-186.083C15.987,-177.263 19.528,-168.675 22.209,-159.825C25.61,-148.601 27.997,-137.056 31.667,-125.928C43.062,-91.377 54.717,-56.91 66.535,-22.5C79.215,14.422 92.105,51.273 105.082,88.092C111.563,106.48 118.483,124.714 125.1,143.055C126.33,146.462 127.448,149.997 127.926,153.566C128.554,158.264 127.346,162.638 122.653,164.918C118.057,167.151 114.029,165.102 111.113,161.78C108.896,159.256 107.649,155.836 106.161,152.723C98.187,136.04 90.025,119.441 82.42,102.591C76.642,89.789 71.509,76.692 66.245,63.664C53.474,32.051 41.129,0.26 27.88,-31.15C23.657,-41.161 17.295,-50.301 11.535,-59.606C10.203,-61.757 7.561,-63.703 5.121,-64.467C-15.113,-70.809 -35.856,-72.602 -56.917,-70.37C-62.981,-69.728 -69.235,-69.25 -74.951,-67.344C-82.919,-64.688 -87.899,-57.87 -93.384,-51.795C-101.669,-42.62 -104.921,-31.111 -109.364,-20.078C-122.538,12.635 -136.388,45.087 -148.93,78.038C-153.952,91.234 -155.96,105.55 -159.888,119.198C-162.385,127.873 -165.332,136.517 -169.129,144.686C-171.897,150.642 -177.225,154.621 -185.922,156.215" style="fill:white;fill-rule:nonzero;"/>
            </g>
            <g transform="matrix(1,0,0,1,384.113,1071.8)">
                <path d="M0,8.196C6.009,0.034 14.051,-1.235 22.242,-1.601C35.029,-2.174 47.882,-1.759 60.618,-2.822C72.638,-3.826 84.502,-6.63 96.518,-7.773C101.948,-8.29 107.747,-7.327 113.072,-5.897C118.812,-4.356 121.132,-0.265 120.419,4.283C119.181,12.174 116.066,15.96 109.673,16.209C102.536,16.486 95.374,16.219 88.224,16.09C70.648,15.772 53.065,15.625 35.503,14.95C26.607,14.609 17.712,13.526 8.895,12.244C5.953,11.817 3.252,9.732 0,8.196" style="fill:white;fill-rule:nonzero;"/>
            </g>
            <g transform="matrix(1,0,0,1,1136.99,947.127)">
                <path d="M0,316.943C7.564,304.786 15.629,293.026 22.472,280.594C40.168,248.448 51.366,213.739 60.071,178.318C70.418,136.217 79.461,93.799 89.328,51.578C97.202,17.883 106.143,-15.511 119.193,-47.67C120.591,-51.115 122.899,-52.478 126.168,-52.978C129.802,-53.534 131.731,-52.529 132.509,-48.328C134.833,-35.79 131.948,-23.938 128.884,-12.005C125.389,1.606 121.117,15.108 118.856,28.931C106.714,103.158 91.637,176.778 74.24,249.933C70.415,266.019 66.152,282.004 61.898,297.985C61.149,300.797 59.764,303.57 58.13,305.995C48.115,320.859 38.545,336.084 27.577,350.219C21.889,357.551 13.769,363.059 6.43,368.997C4.883,370.248 1.785,370.477 -0.326,369.993C-17.039,366.156 -28.388,355.026 -38.138,341.733C-47.66,328.75 -57.679,316.119 -66.855,302.899C-74.314,292.153 -77.916,279.588 -80.648,266.942C-84.877,247.367 -89.724,227.826 -92.234,208.008C-94.838,187.443 -101.51,168.04 -106.07,148.053C-108.441,137.661 -110.104,127.257 -108.802,116.508C-107.905,109.096 -105.918,107.892 -98.755,110.153C-92.291,112.193 -88.602,116.033 -85.979,122.397C-76.403,145.629 -70.604,169.915 -64.698,194.202C-58.52,219.607 -52.702,245.136 -41.652,269.037C-33.138,287.454 -21.737,303.548 -4.274,314.648C-3.319,315.254 -2.279,315.726 0,316.943" style="fill:white;fill-rule:nonzero;"/>
            </g>
            <g transform="matrix(1,0,0,1,1043.24,909.011)">
                <path d="M0,122.459C0,124.124 0.095,125.796 -0.016,127.454C-0.514,134.872 -3.392,136.864 -10.202,133.596C-17.229,130.225 -21.9,125.509 -23.588,116.656C-28.823,89.2 -35.499,62.021 -41.505,34.71C-44.384,21.619 -47.359,8.529 -49.478,-4.691C-49.924,-7.477 -47.215,-11.169 -45.082,-13.706C-44.495,-14.405 -40.286,-13.012 -38.517,-11.601C-31.14,-5.722 -27.63,2.612 -25.981,11.536C-20.589,40.718 -11.154,68.824 -3.693,97.453C-1.574,105.583 -0.635,114.02 0.845,122.316C0.564,122.364 0.282,122.411 0,122.459" style="fill:white;fill-rule:nonzero;"/>
            </g>
            <g transform="matrix(1,0,0,1,538.723,1301.95)">
                <path d="M0,-407.303C-4.871,-397.954 -12.26,-390.651 -21.298,-385.607C-46.947,-371.291 -69.704,-352.908 -93.509,-335.957C-117.036,-319.204 -141.626,-303.95 -165.509,-287.685C-181.102,-277.065 -195.359,-264.868 -207.2,-249.968C-213.17,-242.455 -213.89,-234.299 -211.239,-225.739C-209.941,-221.549 -207.505,-217.589 -205.013,-213.912C-196.376,-201.166 -187.309,-188.873 -176.516,-177.66C-147.887,-147.917 -120.538,-116.936 -91.706,-87.398C-77.106,-72.442 -60.293,-59.662 -44.722,-45.63C-40.755,-42.055 -37.865,-43.033 -34.467,-45.895C-27.385,-51.862 -24.483,-60.014 -23.582,-68.694C-22.125,-82.733 -21.53,-96.86 -20.435,-110.939C-19.384,-124.455 -16.304,-137.192 -5.898,-146.978C0.167,-152.682 7.483,-154.694 15.583,-154.522C20.792,-154.412 21.342,-150.178 21.349,-146.745C21.357,-142.691 19.985,-138.639 19.241,-134.58C17.335,-124.174 14.369,-113.828 13.756,-103.345C12.068,-74.455 11.375,-45.506 10.274,-16.581C9.818,-4.621 3.022,3.619 -8.802,5.898C-10.945,6.312 -13.711,5.338 -15.742,4.203C-35.721,-6.963 -53.702,-20.922 -70.956,-35.854C-103.047,-63.627 -135.252,-91.271 -167.113,-119.305C-189.238,-138.773 -210.844,-158.83 -232.731,-178.569C-241.381,-186.37 -250.279,-193.898 -258.848,-201.785C-265.878,-208.255 -270.11,-216.311 -271.942,-225.804C-272.917,-230.859 -271.802,-234.535 -268.486,-238.464C-252.706,-257.166 -233.376,-271.56 -212.623,-283.967C-164.794,-312.563 -119.848,-345.415 -73.918,-376.82C-54.715,-389.949 -34.749,-401.818 -13.326,-411.046C-7.364,-413.615 -4.111,-412.627 0,-407.303" style="fill:white;fill-rule:nonzero;"/>
            </g>
            <g transform="matrix(1,0,0,1,1375.53,882.77)">
                <path d="M0,435.64C-2.809,417.745 -6.648,400.365 -8.052,382.791C-10.567,351.319 -11.462,319.72 -13.355,288.194C-14.09,275.961 -8.365,266.66 -0.624,258.481C4.704,252.851 11.14,248.228 17.292,243.427C30.522,233.106 44.293,223.439 57.088,212.613C70.912,200.916 86.629,192.392 101.871,182.963C109.707,178.116 117.061,172.138 123.598,165.631C131.516,157.75 134.781,147.274 135.445,136.227C135.632,133.117 134.89,129.567 133.451,126.803C123.303,107.305 106.705,94.105 89.145,81.78C71.758,69.577 55.143,56.193 37.203,44.892C28.686,39.527 18.02,37.238 8.041,34.663C2.715,33.29 0.207,38.47 -1.064,42.803C-2.594,48.018 -2.944,53.572 -4.36,58.83C-5.456,62.898 -6.703,67.255 -9.139,70.558C-13.001,75.797 -17.651,75.319 -19.833,69.268C-22.329,62.346 -24.735,54.871 -24.664,47.662C-24.541,35.31 -22.632,22.956 -21.036,10.659C-20.772,8.631 -18.661,6.163 -16.743,5.149C-9.677,1.413 -2.425,0 5.669,2.955C18.798,7.747 30.125,15.507 41.737,22.93C50.241,28.366 59.16,33.149 67.778,38.413C70.73,40.217 73.233,42.741 76.107,44.692C91.358,55.045 106.891,65.002 121.887,75.71C137.974,87.198 153.764,99.126 169.314,111.331C178.165,118.278 184.043,127.585 185.878,138.892C186.347,141.782 185.921,145.136 184.888,147.896C180.187,160.457 169.694,167.623 159.237,174.876C122.927,200.06 86.605,225.228 50.536,250.754C42.153,256.686 34.544,263.779 26.95,270.743C16.017,280.768 12.55,293.811 12.381,308.238C12.11,331.353 11.271,354.461 11.038,377.576C10.903,390.874 11.491,404.178 11.741,417.479C11.775,419.31 11.794,421.144 11.728,422.973C11.47,430.085 8.839,433.289 0,435.64" style="fill:white;fill-rule:nonzero;"/>
            </g>
        </g>
    </g>
</svg>
