<?xml version="1.0" encoding="UTF-8" standalone="no"?>
<!DOCTYPE svg PUBLIC "-//W3C//DTD SVG 1.1//EN" "http://www.w3.org/Graphics/SVG/1.1/DTD/svg11.dtd">
<svg width="100%" height="100%" viewBox="0 0 1505 434" version="1.1" xmlns="http://www.w3.org/2000/svg" xmlns:xlink="http://www.w3.org/1999/xlink" xml:space="preserve" xmlns:serif="http://www.serif.com/" style="fill-rule:evenodd;clip-rule:evenodd;stroke-linejoin:round;stroke-miterlimit:2;">
    <g transform="matrix(4.16667,0,0,4.16667,0,0)">
        <path d="M165.681,8.289C195.499,7.935 220.132,31.478 221.997,61.435L235.076,61.435C233.23,27.266 205.237,0.325 171.302,0.728C137.864,1.123 110.829,27.927 109.054,61.435L110.722,61.435C112.522,32.06 136.303,8.637 165.681,8.289Z" style="fill:white;"/>
        <path d="M154.437,23.412C176.017,23.156 193.895,39.912 195.788,61.435L208.893,61.435C207.01,35.695 185.758,15.545 160.059,15.85C134.741,16.15 114.211,36.194 112.39,61.435L114.058,61.435C115.893,40.328 133.179,23.664 154.437,23.412Z" style="fill:white;"/>
        <path d="M143.193,38.534C156.532,38.376 167.665,48.354 169.538,61.435L182.684,61.435C180.793,44.129 166.276,30.766 148.815,30.973C131.621,31.177 117.603,44.468 115.762,61.435L117.473,61.435C119.299,48.61 130.064,38.69 143.193,38.534Z" style="fill:white;"/>
        <path d="M34.396,93.373L29.833,93.373L29.833,77.518C29.833,74.77 29.924,72.801 26.06,72.801C23.898,72.801 21.552,73.9 19.896,74.77L19.896,93.373L15.333,93.373L15.333,77.518C15.333,74.724 15.47,72.801 11.564,72.801C9.496,72.801 7.244,73.991 5.452,74.816L5.452,93.373L0.901,93.373L0.901,69.32L5.038,69.32L5.038,71.335C8.761,69.32 10.921,68.863 13.219,68.863C15.561,68.863 17.66,69.641 18.937,71.518C22.149,69.778 24.772,68.817 27.348,68.817C31.43,68.817 34.396,70.694 34.396,76.006L34.396,93.373Z" style="fill:white;fill-rule:nonzero;"/>
        <path d="M57.134,79.567L44.284,79.567C44.421,74.856 46.578,72.067 50.663,72.067C55.482,72.067 57.043,75.222 57.134,79.567ZM62.32,82.817L62.32,81.626C62.32,73.896 58.97,68.817 50.663,68.817C44.467,68.817 39.235,72.387 39.235,80.849C39.235,89.026 43.917,93.879 52.407,93.879C55.069,93.879 57.547,93.742 60.439,93.008L60.439,89.757C58.098,90.168 56.079,90.442 53.876,90.442C50.388,90.442 45.018,90.213 44.238,82.817L62.32,82.817Z" style="fill:white;fill-rule:nonzero;"/>
        <path d="M82.913,90.157C80.94,90.339 79.793,90.385 78.922,90.385C73.418,90.385 70.345,86.727 70.345,81.377C70.345,75.113 73.28,72.186 78.692,72.186C79.702,72.186 80.986,72.278 82.913,72.598L82.913,90.157ZM87.475,59.004L82.913,59.004L82.913,68.958C80.298,68.589 78.647,68.635 77.684,68.635C69.792,68.635 65.419,73.832 65.419,81.514C65.419,89.608 71.125,93.873 78.738,93.873C81.491,93.873 85.057,93.46 87.475,93.047C87.521,87.642 87.475,67.947 87.475,59.004Z" style="fill:white;fill-rule:nonzero;"/>
        <path d="M108.927,81.3C108.927,86.852 106.076,90.385 100.467,90.385C99.64,90.385 98.353,90.385 96.376,90.11L96.376,72.445C98.077,72.215 99.548,72.123 100.56,72.123C106.306,72.123 108.927,75.381 108.927,81.3ZM113.792,81.346C113.792,73.27 109.156,68.635 101.801,68.635C101.111,68.635 99.272,68.635 96.422,69.002L96.422,59.004L91.859,59.004L91.859,93.093C95.007,93.644 98.537,93.873 100.467,93.873C108.099,93.873 113.792,89.33 113.792,81.346Z" style="fill:white;fill-rule:nonzero;"/>
        <path d="M137.383,81.165C137.383,86.852 134.907,90.521 130.139,90.521C125.37,90.521 122.895,86.852 122.895,81.165C122.895,75.524 125.416,72.129 130.139,72.129C134.861,72.129 137.383,75.524 137.383,81.165ZM142.275,81.165C142.275,73.46 137.795,68.692 130.139,68.692C122.434,68.692 117.969,73.46 117.969,81.165C117.969,88.686 122.388,93.942 130.139,93.942C137.246,93.942 142.275,88.641 142.275,81.165Z" style="fill:white;fill-rule:nonzero;"/>
        <path d="M151.312,75.132L151.312,93.373L146.749,93.373L146.749,69.256L150.901,69.256L150.901,71.597C153.835,69.669 156.314,69.072 160.583,69.072L160.583,73.248C155.993,73.248 153.744,73.433 151.312,75.132Z" style="fill:white;fill-rule:nonzero;"/>
        <path d="M177.728,77.055C177.728,80.761 175.846,82.317 172.175,82.317C169.055,82.317 166.853,80.715 166.853,77.055C166.853,73.989 168.78,72.067 172.175,72.067C175.525,72.067 177.728,73.852 177.728,77.055ZM185.69,72.296L185.69,68.496L175.525,69.091C174.653,68.954 173.644,68.817 172.175,68.817C166.395,68.817 162.04,71.609 162.04,77.283C162.04,81.31 164.286,83.138 165.936,84.05C163.69,85.646 162.499,87.211 162.499,89.514C162.499,93.825 167.174,94.238 171.946,94.192L175.204,94.192C176.81,94.238 180.331,94.192 180.331,96.471C180.331,98.522 176.718,100.073 171.808,100.073C169.285,100.073 165.982,99.571 163.369,99.115L163.369,102.606C166.669,103.298 169.698,103.436 172.588,103.436C179.966,103.436 185.186,101.04 185.186,95.788C185.186,88.317 174.194,90.525 169.468,90.02C167.725,89.79 167.082,89.33 167.082,88.593C167.082,87.258 168.55,86.152 169.606,85.464C170.432,85.601 171.304,85.692 172.129,85.692C180.468,85.692 182.478,80.853 182.478,77.238C182.478,74.95 181.656,73.165 180.422,71.975C182.158,72.113 184.681,72.296 185.69,72.296Z" style="fill:white;fill-rule:nonzero;"/>
        <path d="M203.297,90.342C200.96,90.479 200.044,90.571 198.808,90.571C195.143,90.571 191.479,90.159 191.479,86.134C191.479,82.611 194.41,81.879 199.22,81.879C199.907,81.879 201.327,81.971 203.297,82.017L203.297,90.342ZM207.848,93.325L207.848,76.803C207.848,69.745 203.527,68.823 196.838,68.823C194.089,68.823 191.296,69.1 188.373,69.699L188.373,73.287C190.931,72.83 193.769,72.327 196.334,72.327C203.022,72.327 203.251,73.561 203.251,78.629C201.648,78.629 200.411,78.492 199.357,78.492C194.319,78.492 186.729,78.538 186.729,85.997C186.729,92.498 191.067,93.875 197.296,93.875C200.594,93.875 203.757,93.784 207.848,93.325Z" style="fill:white;fill-rule:nonzero;"/>
        <path d="M218.5,75.132L218.5,93.373L213.938,93.373L213.938,69.256L218.089,69.256L218.089,71.597C221.024,69.669 223.502,69.072 227.771,69.072L227.771,73.248C223.181,73.248 220.932,73.433 218.5,75.132Z" style="fill:white;fill-rule:nonzero;"/>
        <path d="M236.897,93.879C234.054,93.879 231.351,93.514 228.741,93.011L228.741,89.264C231.534,89.859 233.917,90.362 236.301,90.362C239.694,90.362 243.087,89.539 243.087,86.838C243.087,83.588 238.181,83.313 235.796,82.718C232.45,81.849 228.604,80.567 228.604,75.898C228.604,70.391 233.687,68.823 238.502,68.823C241.94,68.823 244.37,69.238 246.25,69.514L246.25,73.152C244.003,72.74 241.62,72.373 239.327,72.373C236.989,72.373 233.229,72.74 233.229,75.578C233.229,80.796 247.854,77.042 247.854,86.243C247.854,90.957 244.003,93.879 236.897,93.879Z" style="fill:white;fill-rule:nonzero;"/>
        <path d="M268.919,93.373L256.94,80.72L256.94,93.373L252.443,93.373L252.443,59.004L256.94,59.004L256.94,79.437L268.002,69.313L274.151,69.313L261.897,79.621L275.482,93.373L268.919,93.373Z" style="fill:white;fill-rule:nonzero;"/>
        <path d="M293.885,81.165C293.885,86.852 291.409,90.521 286.641,90.521C281.872,90.521 279.396,86.852 279.396,81.165C279.396,75.524 281.918,72.129 286.641,72.129C291.363,72.129 293.885,75.524 293.885,81.165ZM298.777,81.165C298.777,73.46 294.296,68.692 286.641,68.692C278.936,68.692 274.47,73.46 274.47,81.165C274.47,88.686 278.89,93.942 286.641,93.942C293.748,93.942 298.777,88.641 298.777,81.165Z" style="fill:white;fill-rule:nonzero;"/>
        <rect x="302.792" y="59.004" width="4.563" height="34.369" style="fill:white;fill-rule:nonzero;"/>
        <path d="M328.27,90.342C325.934,90.479 325.018,90.571 323.781,90.571C320.116,90.571 316.452,90.159 316.452,86.134C316.452,82.611 319.383,81.879 324.193,81.879C324.88,81.879 326.3,81.971 328.27,82.017L328.27,90.342ZM332.821,93.325L332.821,76.803C332.821,69.745 328.5,68.823 321.811,68.823C319.063,68.823 316.269,69.1 313.346,69.699L313.346,73.287C315.904,72.83 318.742,72.327 321.307,72.327C327.995,72.327 328.224,73.561 328.224,78.629C326.621,78.629 325.384,78.492 324.331,78.492C319.292,78.492 311.702,78.538 311.702,85.997C311.702,92.498 316.041,93.875 322.269,93.875C325.567,93.875 328.73,93.784 332.821,93.325Z" style="fill:white;fill-rule:nonzero;"/>
        <path d="M355.489,93.373L355.489,78.038C355.489,75.477 355.444,72.686 351.317,72.686C348.978,72.686 345.539,74.013 343.476,74.882L343.476,93.373L338.917,93.373L338.917,69.283L343.155,69.283L343.155,71.49C347.923,69.374 349.574,68.823 352.876,68.823C356.311,68.823 360.098,70.846 360.098,76.163L360.098,93.373L355.489,93.373Z" style="fill:white;fill-rule:nonzero;"/>
    </g>
</svg>
