<?xml version="1.0" encoding="UTF-8" standalone="no"?><!DOCTYPE svg PUBLIC "-//W3C//DTD SVG 1.1//EN" "http://www.w3.org/Graphics/SVG/1.1/DTD/svg11.dtd"><svg width="100%" height="100%" viewBox="0 0 528 116" version="1.1" xmlns="http://www.w3.org/2000/svg" xmlns:xlink="http://www.w3.org/1999/xlink" xml:space="preserve" xmlns:serif="http://www.serif.com/" style="fill-rule:evenodd;clip-rule:evenodd;stroke-linejoin:round;stroke-miterlimit:2;"><g><clipPath id="_clip1"><path d="M72.962,16.931l-65.389,-0c-1.468,-0 -2.902,0.594 -3.943,1.631c-1.037,1.041 -1.631,2.475 -1.631,3.943l-0,10.071c-0,1.487 0.58,2.888 1.635,3.943c1.052,1.052 2.449,1.632 3.939,1.632l22.937,0l0,67.819c0,1.486 0.58,2.887 1.635,3.943c1.052,1.051 2.45,1.631 3.94,1.631l11.94,0c1.487,0 2.888,-0.58 3.943,-1.631c1.052,-1.056 1.632,-2.457 1.632,-3.943l-0,-67.819l19.362,0c1.486,0 2.887,-0.58 3.943,-1.632c1.051,-1.055 1.631,-2.456 1.631,-3.943l0,-10.071c0,-1.487 -0.58,-2.888 -1.631,-3.943c-1.056,-1.052 -2.457,-1.631 -3.943,-1.631Z"/></clipPath><g clip-path="url(#_clip1)"><rect x="-8" y="6.931" width="96.536" height="114.612" style="fill:#15232b;fill-rule:nonzero;"/></g><clipPath id="_clip2"><path d="M97.938,6.787c-3.765,-0.019 -7.288,1.535 -9.696,4.066c-2.43,2.515 -3.794,5.953 -3.791,9.565c-0.003,3.575 1.249,7.035 3.646,9.618c2.371,2.598 5.935,4.185 9.7,4.159c3.56,0.022 7.124,-1.294 9.647,-3.869c2.546,-2.557 3.858,-6.184 3.836,-9.908c0.007,-3.478 -1.19,-6.901 -3.587,-9.487c-2.367,-2.602 -5.972,-4.174 -9.755,-4.144Z"/></clipPath><g clip-path="url(#_clip2)"><rect x="74.451" y="-3.214" width="46.829" height="47.409" style="fill:#15232b;fill-rule:nonzero;"/></g><clipPath id="_clip3"><path d="M103.839,40.571l-11.94,-0c-1.468,-0 -2.907,0.595 -3.943,1.632c-1.037,1.04 -1.632,2.475 -1.632,3.943l-0,59.825c-0,1.486 0.58,2.887 1.635,3.939c1.052,1.052 2.449,1.635 3.94,1.635l11.94,0c1.487,0 2.888,-0.583 3.943,-1.635c1.052,-1.052 1.632,-2.453 1.632,-3.939l0,-59.825c0,-1.487 -0.58,-2.888 -1.632,-3.943c-1.055,-1.052 -2.456,-1.632 -3.943,-1.632Z"/></clipPath><g clip-path="url(#_clip3)"><rect x="76.324" y="30.571" width="43.09" height="90.973" style="fill:#15232b;fill-rule:nonzero;"/></g><clipPath id="_clip4"><path d="M187.248,24.925c-1.966,-1.022 -4.798,-2.177 -8.444,-3.132c-3.638,-0.948 -8.053,-1.673 -12.988,-1.673c-13.442,-0.029 -25.119,5.021 -33.191,13.621c-8.09,8.588 -12.531,20.521 -12.52,33.818c-0.011,13.137 4.088,24.624 11.706,32.804c7.593,8.198 18.597,12.795 31.125,12.762c5.541,0 10.442,-0.751 14.471,-1.743c4.032,-1.004 7.161,-2.23 9.317,-3.304c2.304,-1.156 3.519,-3.754 2.932,-6.258l-2.156,-9.206c-0.375,-1.613 -1.464,-2.988 -2.947,-3.72c-1.479,-0.736 -3.233,-0.776 -4.742,-0.104c-3.727,1.639 -7.975,3.382 -14.713,3.408c-6.518,-0.033 -11.613,-2.345 -15.385,-6.496c-3.746,-4.173 -6.221,-10.461 -6.232,-18.864c-0.008,-7.384 2.11,-13.984 5.771,-18.485c1.836,-2.267 4.04,-4.047 6.693,-5.303c2.657,-1.253 5.794,-1.996 9.585,-1.999c6.566,0.022 10.624,1.78 13.371,3.307c1.471,0.829 3.214,0.951 4.79,0.327c1.572,-0.621 2.765,-1.899 3.27,-3.516l3.018,-9.64c0.807,-2.568 -0.346,-5.355 -2.731,-6.604Z"/></clipPath><g clip-path="url(#_clip4)"><rect x="110.105" y="10.12" width="90.13" height="113.004" style="fill:#15232b;fill-rule:nonzero;"/></g><clipPath id="_clip5"><path d="M239.141,60.325l26.435,-29.006c1.482,-1.628 1.869,-3.991 0.977,-6.006c-0.888,-2.018 -2.895,-3.322 -5.099,-3.322l-14.386,-0c-1.635,-0 -3.203,0.728 -4.259,1.977l-20.666,24.472l0,-35.264c0,-1.487 -0.58,-2.888 -1.631,-3.939c-1.052,-1.052 -2.453,-1.636 -3.943,-1.636l-11.941,-0c-1.468,-0 -2.902,0.599 -3.943,1.636c-1.037,1.036 -1.631,2.475 -1.631,3.939l0,85.36c0,1.49 0.579,2.891 1.635,3.943c1.052,1.052 2.449,1.631 3.939,1.631l11.941,-0c1.49,-0 2.887,-0.579 3.943,-1.631c1.051,-1.052 1.631,-2.453 1.631,-3.943l0,-20.968l1.119,-1.278l19.258,25.442c1.044,1.494 2.742,2.378 4.571,2.378l14.675,-0c2.096,-0 4.018,-1.174 4.969,-3.043c0.951,-1.873 0.773,-4.118 -0.461,-5.813l-27.133,-34.929Z"/></clipPath><g clip-path="url(#_clip5)"><rect x="189.054" y="-2.399" width="88.288" height="116.509" style="fill:#15232b;fill-rule:nonzero;"/></g><clipPath id="_clip6"><path d="M321.683,63.094c-3.735,-3.017 -8.18,-5.355 -13.201,-7.421c-4.868,-2.059 -8.042,-3.832 -9.473,-5.192c-0.728,-0.673 -1.062,-1.174 -1.293,-1.691c-0.223,-0.516 -0.383,-1.148 -0.386,-2.233c0.022,-1.829 0.598,-3.148 1.65,-4.163c1.063,-0.999 2.82,-1.895 6.013,-1.917c5.574,-0.008 9.874,2.181 12.211,3.701c1.42,0.922 3.159,1.152 4.769,0.624c1.605,-0.524 2.876,-1.735 3.478,-3.311l3.449,-9.064c0.951,-2.501 0.007,-5.31 -2.264,-6.723c-5.124,-3.166 -12.36,-5.57 -20.926,-5.582c-9.083,-0.011 -16.943,2.933 -22.502,8.024c-5.567,5.069 -8.7,12.245 -8.678,19.849c-0.045,6.083 2.319,11.866 6.478,16.385c4.154,4.556 9.889,8.068 17.009,10.941c4.865,1.94 7.823,3.776 9.202,5.262c0.71,0.747 1.092,1.379 1.378,2.122c0.279,0.751 0.458,1.669 0.461,2.981c-0.041,2.181 -0.676,3.575 -2.003,4.779c-1.345,1.182 -3.816,2.297 -8.105,2.304c-5.177,0.056 -11.324,-2.431 -14.884,-4.556c-1.427,-0.836 -3.162,-0.993 -4.716,-0.428c-1.553,0.565 -2.787,1.799 -3.345,3.356l-3.307,9.205c-0.903,2.52 0.097,5.307 2.397,6.675c6.333,3.742 14.616,6.084 23.424,6.106c9.532,0.004 17.834,-2.568 23.892,-7.663c6.08,-5.062 9.495,-12.688 9.447,-21.075c0.004,-3.523 -0.558,-6.846 -1.698,-9.893c-1.71,-4.579 -4.731,-8.384 -8.477,-11.402Z"/></clipPath><g clip-path="url(#_clip6)"><rect x="262.368" y="10.122" width="79.49" height="113.004" style="fill:#15232b;fill-rule:nonzero;"/></g><clipPath id="_clip7"><path d="M376.077,21.99l-7.28,-0l0.004,-12.695c-0,-1.807 -0.863,-3.483 -2.331,-4.534c-1.471,-1.052 -3.333,-1.327 -5.046,-0.744l-11.796,4.029c-2.263,0.773 -3.772,2.884 -3.772,5.277l-0,8.667l-2.795,-0c-1.467,-0 -2.906,0.594 -3.943,1.631c-1.036,1.041 -1.631,2.475 -1.631,3.943l-0,9.354c-0,1.486 0.58,2.888 1.635,3.939c1.052,1.052 2.449,1.635 3.939,1.635l2.795,-0l-0,39.453c0.037,4.337 0.03,11.465 3.189,18.303c1.587,3.404 4.125,6.771 7.871,9.164c3.735,2.412 8.503,3.724 14.081,3.713c5.578,-0.023 10.172,-0.721 13.914,-2.345c2.152,-0.959 3.478,-3.185 3.296,-5.534l-0.724,-9.205c-0.134,-1.728 -1.071,-3.304 -2.524,-4.244c-1.453,-0.944 -3.278,-1.152 -4.905,-0.573c-1.316,0.465 -3.011,0.822 -6.181,0.829c-1.248,-0.004 -1.973,-0.219 -2.419,-0.438c-0.334,-0.171 -0.565,-0.342 -0.829,-0.651c-0.39,-0.457 -0.873,-1.312 -1.237,-2.78c-0.364,-1.46 -0.591,-3.474 -0.587,-5.949l-0,-39.746l7.276,0.003c1.487,-0 2.888,-0.583 3.943,-1.635c1.052,-1.051 1.632,-2.453 1.632,-3.939l0,-9.354c0,-1.487 -0.58,-2.888 -1.632,-3.943c-1.055,-1.052 -2.456,-1.631 -3.943,-1.631Z"/></clipPath><g clip-path="url(#_clip7)"><rect x="327.487" y="-6.283" width="70.737" height="129.407" style="fill:#15232b;fill-rule:nonzero;"/></g><clipPath id="_clip8"><path d="M444.809,53.64l-28.705,-0c0.847,-2.698 2.022,-5.307 3.579,-7.384c1.371,-1.851 2.954,-3.308 4.779,-4.308c1.832,-1.003 3.924,-1.609 6.637,-1.616c2.973,0.007 5.084,0.632 6.764,1.557c2.49,1.386 4.278,3.649 5.549,6.715c0.639,1.546 1.096,3.271 1.397,5.036Zm5.162,-29.103c-4.861,-2.805 -10.833,-4.426 -17.72,-4.418c-6.065,-0.004 -11.754,1.282 -16.79,3.697c-7.577,3.616 -13.598,9.748 -17.615,17.378c-4.029,7.644 -6.128,16.794 -6.128,26.795c-0.008,12.784 3.746,24.122 11.126,32.309c7.359,8.213 18.262,12.87 30.987,12.829c12.799,0 21.833,-2.932 27.029,-5.445c2.408,-1.163 3.649,-3.872 2.962,-6.455l-2.301,-8.636c-0.42,-1.554 -1.468,-2.84 -2.913,-3.557c-1.446,-0.717 -3.107,-0.777 -4.598,-0.16c-4.634,1.877 -9.406,3.572 -18.451,3.609c-2.984,-0 -5.775,-0.435 -8.235,-1.301c-3.691,-1.327 -6.638,-3.486 -8.912,-7.024c-1.624,-2.56 -2.88,-5.987 -3.49,-10.45l47.394,0c2.91,0 5.333,-2.241 5.56,-5.14c0.149,-1.902 0.305,-4.132 0.301,-7.053c-0.026,-7.645 -1.628,-17.452 -6.972,-26.007c-2.676,-4.255 -6.366,-8.168 -11.234,-10.971Z"/></clipPath><g clip-path="url(#_clip8)"><rect x="381.718" y="10.119" width="96.459" height="113.007" style="fill:#15232b;fill-rule:nonzero;"/></g><clipPath id="_clip9"><path d="M520.58,20.727c-0.391,-0.041 -0.851,-0.123 -1.539,-0.234c-0.684,-0.108 -1.594,-0.231 -2.661,-0.231c-6.199,-0.007 -11.933,2.297 -16.474,5.991l-0.361,0.338c-0.468,-2.62 -2.735,-4.601 -5.463,-4.601l-10.506,-0c-1.531,-0 -3.002,0.636 -4.05,1.751c-1.056,1.107 -1.602,2.616 -1.513,4.147c0.424,7.329 0.569,14.847 0.569,23.127l0,36.371c0,1.49 0.576,2.892 1.631,3.943c1.052,1.052 2.453,1.632 3.943,1.632l11.941,0c1.486,0 2.883,-0.58 3.939,-1.632c1.052,-1.051 1.631,-2.453 1.631,-3.943l-0,-24c-0.018,-5.697 1.491,-11.223 3.977,-14.865c1.237,-1.836 2.676,-3.211 4.277,-4.136c1.617,-0.922 3.419,-1.453 5.738,-1.461c1.424,0.004 2.401,0.108 3.694,0.249c1.583,0.179 3.148,-0.319 4.337,-1.382c1.186,-1.059 1.858,-2.561 1.858,-4.155l-0,-11.368c-0,-2.84 -2.144,-5.233 -4.968,-5.541Z"/></clipPath><g clip-path="url(#_clip9)"><rect x="468.004" y="10.262" width="67.544" height="92.699" style="fill:#15232b;fill-rule:nonzero;"/></g></g></svg>