<?xml version="1.0" encoding="UTF-8" standalone="no"?>
<!DOCTYPE svg PUBLIC "-//W3C//DTD SVG 1.1//EN" "http://www.w3.org/Graphics/SVG/1.1/DTD/svg11.dtd">
<svg width="100%" height="100%" viewBox="0 0 2481 3508" version="1.1" xmlns="http://www.w3.org/2000/svg" xmlns:xlink="http://www.w3.org/1999/xlink" xml:space="preserve" xmlns:serif="http://www.serif.com/" style="fill-rule:evenodd;clip-rule:evenodd;stroke-linejoin:round;stroke-miterlimit:2;">
    <g id="Lager-1" serif:id="Lager 1" transform="matrix(4.16667,0,0,4.16667,0,0)">
        <g transform="matrix(1,0,0,1,191.721,659.92)">
            <path d="M0,10.022L0,58.29C-12.526,62.465 -25.721,65.47 -39.083,65.47C-79.5,65.47 -105.053,38.749 -105.053,4.343C-105.053,-27.557 -79.667,-55.448 -38.414,-55.448C-25.554,-55.448 -12.693,-51.44 -5.011,-46.429L-12.526,-32.567C-18.874,-35.908 -28.728,-38.748 -37.746,-38.748C-62.798,-38.748 -80.001,-21.878 -80.001,4.677C-80.001,32.402 -60.293,48.77 -40.084,48.77C-33.737,48.77 -28.56,48.101 -23.55,45.93L-23.55,10.022L0,10.022Z" style="fill:white;fill-rule:nonzero;"/>
        </g>
        <g transform="matrix(1,0,0,1,259.195,624.179)">
            <path d="M0,87.016C0,91.526 0.501,96.369 2.171,99.207L25.721,99.207C23.048,93.363 22.214,85.513 22.214,78.832L22.214,44.761C22.214,18.706 3.34,13.696 -12.024,13.696C-23.549,13.696 -33.737,16.536 -44.092,25.053L-36.91,35.576C-31.065,30.565 -24.384,27.057 -14.864,27.057C-7.682,27.057 -0.835,31.901 0.334,39.583L-19.374,45.429C-38.747,50.94 -50.271,59.958 -50.271,75.826C-50.271,91.192 -39.416,101.211 -26.388,101.211C-18.706,101.211 -11.19,96.035 -5.01,91.192L0,87.016ZM5.512,-14.195C0.668,-14.195 -3.841,-9.518 -3.841,-4.842C-3.841,0.167 0.501,4.677 5.512,4.677C10.689,4.677 15.031,0.335 15.031,-4.842C15.031,-9.853 10.689,-14.195 5.512,-14.195M-30.73,-14.195C-35.574,-14.195 -40.083,-9.518 -40.083,-4.842C-40.083,0.167 -35.741,4.677 -30.73,4.677C-25.553,4.677 -21.211,0.335 -21.211,-4.842C-21.211,-9.853 -25.553,-14.195 -30.73,-14.195M0.334,50.774C2.004,75.325 -9.52,86.348 -18.372,86.348C-23.716,86.348 -28.392,81.337 -28.392,73.989C-28.392,64.468 -22.88,58.122 -12.024,54.782L0.334,50.774Z" style="fill:white;fill-rule:nonzero;"/>
        </g>
        <g transform="matrix(1,0,0,1,326.001,638.209)">
            <path d="M0,85.177L-34.071,4.008L-11.858,0C-4.677,19.207 2.672,38.58 9.688,61.795L10.021,61.795C17.537,38.58 25.22,19.207 32.901,0L51.94,3.507L15.533,85.177L0,85.177Z" style="fill:white;fill-rule:nonzero;"/>
        </g>
        <g transform="matrix(1,0,0,1,0,482.126)">
            <rect x="391.305" y="118.504" width="22.214" height="122.756" style="fill:white;"/>
        </g>
        <g transform="matrix(1,0,0,1,509.386,679.628)">
            <path d="M0,4.008C1.668,-20.877 -9.187,-41.754 -35.241,-41.754C-59.124,-41.754 -77.83,-25.386 -77.83,0.335C-77.83,27.892 -58.957,45.762 -33.737,45.762C-24.218,45.762 -12.361,43.091 -1.002,36.409L-7.35,24.718C-12.861,28.561 -21.545,31.4 -29.729,31.4C-43.593,31.4 -54.616,19.708 -54.114,4.008L0,4.008ZM-53.781,-8.016C-53.947,-19.206 -48.27,-29.394 -35.575,-29.394C-24.554,-29.394 -20.044,-20.709 -20.879,-8.016L-53.781,-8.016Z" style="fill:white;fill-rule:nonzero;"/>
        </g>
        <g transform="matrix(1,0,0,1,110.449,782.237)">
            <path d="M0,-6.931L0.147,-6.931L18.643,-29.992L26.895,-26.972L9.505,-6.193L30.432,20.259L19.821,23.061L0.147,-3.761L0,-3.761L0,22.323L-10.388,22.323L-10.388,-29.256L0,-29.256L0,-6.931Z" style="fill:white;fill-rule:nonzero;"/>
        </g>
        <g transform="matrix(1,0,0,1,180.67,752.098)">
            <path d="M0,53.348C15.842,53.348 25.716,41.336 25.716,25.936C25.716,11.494 14.811,0 0,0C-14.81,0 -25.716,11.494 -25.716,25.936C-25.716,41.336 -15.842,53.348 0,53.348M0,45.977C-10.831,45.977 -14.662,35.81 -14.662,25.936C-14.662,16.431 -10.315,7.369 0,7.369C10.316,7.369 14.663,16.431 14.663,25.936C14.663,35.81 10.833,45.977 0,45.977" style="fill:white;fill-rule:nonzero;"/>
        </g>
        <g transform="matrix(1,0,0,1,285.375,752.981)">
            <path d="M0,51.579L-10.389,51.579L-10.389,11.347L-10.537,11.347C-16.21,25.717 -22.104,38.684 -27.925,51.579L-33.525,51.579C-39.053,38.684 -44.652,25.717 -50.031,11.347L-50.179,11.347L-50.179,51.579L-58.504,51.579L-58.504,0L-45.683,0C-40.378,12.675 -31.831,32.863 -29.841,39.494L-29.694,39.494C-27.263,32.568 -17.979,12.675 -12.083,0L0,0L0,51.579Z" style="fill:white;fill-rule:nonzero;"/>
        </g>
        <g transform="matrix(1,0,0,1,367.532,752.981)">
            <path d="M0,51.579L-10.391,51.579L-10.391,11.347L-10.536,11.347C-16.211,25.717 -22.105,38.684 -27.926,51.579L-33.526,51.579C-39.053,38.684 -44.653,25.717 -50.031,11.347L-50.179,11.347L-50.179,51.579L-58.505,51.579L-58.505,0L-45.685,0C-40.379,12.675 -31.831,32.863 -29.842,39.494L-29.695,39.494C-27.263,32.568 -17.979,12.675 -12.085,0L0,0L0,51.579Z" style="fill:white;fill-rule:nonzero;"/>
        </g>
        <g transform="matrix(1,0,0,1,400.836,805.446)">
            <path d="M0,-52.465L0,-22.843C0,-12.749 2.949,-7.224 11.2,-7.224C19.085,-7.224 22.253,-13.928 22.253,-22.255L22.253,-52.465L31.539,-52.465L31.539,-20.413C31.539,-7.371 23.138,0 10.905,0C-3.094,0 -10.388,-6.855 -10.388,-20.927L-10.388,-52.465L0,-52.465Z" style="fill:white;fill-rule:nonzero;"/>
        </g>
        <g transform="matrix(1,0,0,1,500.53,752.981)">
            <path d="M0,51.579L-7.516,51.579C-17.39,39.716 -27.262,27.928 -36.988,14.591L-37.136,14.591L-37.136,51.579L-45.464,51.579L-45.464,0L-37.874,0C-28,11.79 -18.199,23.506 -8.473,36.769L-8.325,36.769L-8.325,0L0,0L0,51.579Z" style="fill:white;fill-rule:nonzero;"/>
        </g>
        <g transform="matrix(1,0,0,1,449.286,343.935)">
            <path d="M0,59.621C-7.941,56.628 -16.469,54.463 -23.82,54.475C-49.216,54.52 -59.633,81.01 -87.325,81.057C-115.135,81.105 -125.63,54.385 -151.128,54.475C-176.407,54.564 -186.72,81.003 -214.304,81.057C-242.028,81.11 -252.416,54.52 -277.83,54.475C-286.759,54.463 -294.864,60.203 -302.206,66.375L-302.209,-14.265C-294.995,-18.5 -287.293,-21.416 -277.887,-21.399C-250.337,-21.351 -239.694,4.418 -214.395,4.374C-189.243,4.33 -178.589,-21.308 -151.208,-21.399C-123.584,-21.489 -112.794,4.414 -87.408,4.374C-62.142,4.334 -51.408,-21.349 -23.911,-21.399C-15.046,-21.416 -6.964,-18.221 0,-14.641L0,59.621Z" style="fill:white;fill-rule:nonzero;"/>
        </g>
        <g transform="matrix(1,0,0,1,358.684,214.958)">
            <path d="M0,-0.014C0,-3.859 3.118,-6.975 6.964,-6.975C10.81,-6.975 13.928,-3.859 13.928,-0.014C13.928,3.832 10.81,6.948 6.964,6.948C3.118,6.948 0,3.832 0,-0.014M19.9,-0.011C19.9,-7.146 14.11,-12.937 6.971,-12.937C-0.171,-12.937 -5.957,-7.146 -5.957,-0.011C-5.957,7.133 -0.171,12.923 6.971,12.923C14.11,12.923 19.9,7.133 19.9,-0.011" style="fill:white;fill-rule:nonzero;"/>
        </g>
        <g transform="matrix(1,0,0,1,365.79,230.108)">
            <path d="M0,93.188C-5.899,87.821 -14.023,86.004 -21.254,83.207C-29.473,80.022 -38.383,75.227 -46.912,63.079C-46.912,63.079 -47.396,62.505 -47.859,62.518C-48.148,62.532 -48.921,62.747 -49.324,63.401L-50.561,64.221L-54.681,67.52C-54.681,43.892 -54.681,50.213 -54.658,41.538C-43.051,47.371 -39.434,48.06 -32.431,51.771L-38.335,55.707L-39.434,56.396C-41.105,57.114 -35.726,62.3 -35.726,62.3C-31.467,66.421 -26.934,69.715 -20.068,70.27C-11.881,70.924 -9.438,66.165 -8.22,56.833C-7.325,50.008 -7.459,38.227 -7.582,25.568L-7.522,25.568C-7.561,22.814 -7.64,17.095 -7.653,14.328L-42.298,10.673L-42.234,3.537C-38.654,3.198 -8.025,-0.074 0.172,-0.06L-0.202,-0.208C7.991,-0.205 38.85,3.457 42.429,3.799L42.483,10.938L7.837,14.542C7.82,17.313 7.734,23.036 7.689,25.787L7.754,25.787C7.608,38.444 7.463,50.222 8.347,57.054C9.553,66.388 11.987,71.146 20.177,70.501C27.045,69.961 31.581,66.672 35.846,62.555C35.846,62.555 41.234,57.376 39.561,56.654L38.466,55.966L32.564,52.019C39.575,48.318 43.188,47.64 54.809,41.816C54.823,50.495 54.83,44.174 54.795,67.801L50.678,64.496L49.442,63.673C49.04,63.019 48.267,62.804 47.979,62.791C47.515,62.774 47.031,63.347 47.031,63.347C38.479,75.485 29.57,80.267 21.348,83.438C14.11,86.232 5.988,88.036 0.079,93.396L0,93.188Z" style="fill:white;fill-rule:nonzero;"/>
        </g>
        <g transform="matrix(1,0,0,1,224.118,214.958)">
            <path d="M0,-0.014C0,-3.859 3.116,-6.975 6.958,-6.975C10.805,-6.975 13.921,-3.859 13.921,-0.014C13.921,3.832 10.805,6.948 6.958,6.948C3.116,6.948 0,3.832 0,-0.014M19.896,-0.011C19.896,-7.146 14.109,-12.937 6.966,-12.937C-0.175,-12.937 -5.962,-7.146 -5.962,-0.011C-5.962,7.133 -0.175,12.923 6.966,12.923C14.109,12.923 19.896,7.133 19.896,-0.011" style="fill:white;fill-rule:nonzero;"/>
        </g>
        <g transform="matrix(1,0,0,1,231.22,230.108)">
            <path d="M0,93.188C-5.9,87.821 -14.025,86.004 -21.255,83.207C-29.474,80.022 -38.38,75.227 -46.914,63.079C-46.914,63.079 -47.398,62.505 -47.861,62.518C-48.15,62.532 -48.922,62.747 -49.326,63.401L-50.562,64.221L-54.682,67.52C-54.682,43.892 -54.682,50.213 -54.659,41.538C-43.052,47.371 -39.435,48.06 -32.428,51.771L-38.336,55.707L-39.435,56.396C-41.106,57.114 -35.727,62.3 -35.727,62.3C-31.468,66.421 -26.934,69.715 -20.066,70.27C-11.878,70.924 -9.439,66.165 -8.218,56.833C-7.328,50.008 -7.458,38.227 -7.582,25.568L-7.523,25.568C-7.56,22.814 -7.64,17.095 -7.654,14.328L-42.299,10.673L-42.236,3.537C-38.655,3.198 -8.022,-0.074 0.171,-0.06L-0.205,-0.208C7.991,-0.205 38.852,3.457 42.432,3.799L42.486,10.938L7.836,14.542C7.819,17.313 7.732,23.036 7.688,25.787L7.751,25.787C7.611,38.444 7.463,50.222 8.346,57.054C9.552,66.388 11.986,71.146 20.176,70.501C27.046,69.961 31.583,66.672 35.846,62.555C35.846,62.555 41.233,57.376 39.563,56.654L38.465,55.966L32.564,52.019C39.574,48.318 43.19,47.64 54.808,41.816C54.817,50.495 54.825,44.174 54.795,67.801L50.68,64.496L49.443,63.673C49.041,63.019 48.269,62.804 47.98,62.791C47.516,62.774 47.033,63.347 47.033,63.347C38.485,75.485 29.569,80.267 21.348,83.438C14.113,86.232 5.986,88.036 0.077,93.396L0,93.188Z" style="fill:white;fill-rule:nonzero;"/>
        </g>
        <g transform="matrix(1,0,0,1,291.398,430.446)">
            <path d="M0,-0.012C0,-3.858 3.116,-6.975 6.962,-6.975C10.807,-6.975 13.923,-3.858 13.923,-0.012C13.923,3.833 10.807,6.949 6.962,6.949C3.116,6.949 0,3.833 0,-0.012M19.899,-0.006C19.899,-7.146 14.109,-12.936 6.968,-12.936C-0.175,-12.936 -5.958,-7.146 -5.958,-0.006C-5.958,7.137 -0.175,12.924 6.968,12.924C14.109,12.924 19.899,7.137 19.899,-0.006" style="fill:white;fill-rule:nonzero;"/>
        </g>
        <g transform="matrix(1,0,0,1,298.505,445.599)">
            <path d="M0,93.185C-5.901,87.818 -14.025,86.004 -21.259,83.204C-29.474,80.019 -38.384,75.224 -46.919,63.077C-46.919,63.077 -47.402,62.502 -47.866,62.519C-48.15,62.528 -48.924,62.744 -49.33,63.399L-50.566,64.221L-54.687,67.516C-54.687,43.893 -54.687,50.209 -54.663,41.536C-43.056,47.372 -39.438,48.057 -32.434,51.768L-38.34,55.707L-39.438,56.393C-41.112,57.112 -35.727,62.3 -35.727,62.3C-31.472,66.418 -26.938,69.715 -20.071,70.266C-11.882,70.922 -9.441,66.163 -8.222,56.83C-7.332,50.005 -7.462,38.224 -7.587,25.565L-7.523,25.565C-7.563,22.815 -7.645,17.091 -7.658,14.325L-42.3,10.674L-42.24,3.533C-38.657,3.198 -8.026,-0.074 0.167,-0.063L-0.208,-0.208C7.986,-0.208 38.851,3.457 42.431,3.794L42.484,10.94L7.836,14.542C7.815,17.31 7.73,23.033 7.687,25.784L7.747,25.784C7.607,38.441 7.462,50.223 8.343,57.051C9.552,66.384 11.986,71.144 20.174,70.498C27.043,69.96 31.58,66.669 35.845,62.556C35.845,62.556 41.232,57.377 39.56,56.651L38.461,55.963L32.561,52.016C39.572,48.319 43.189,47.637 54.805,41.814C54.816,50.492 54.824,44.171 54.793,67.798L50.676,64.497L49.439,63.67C49.037,63.016 48.268,62.8 47.979,62.789C47.516,62.774 47.032,63.348 47.032,63.348C38.481,75.482 29.567,80.268 21.343,83.439C14.108,86.23 5.984,88.034 0.073,93.393L0,93.185Z" style="fill:white;fill-rule:nonzero;"/>
        </g>
        <g transform="matrix(1,0,0,1,449.248,102.544)">
            <path d="M0,2.654L0.023,2.654L0,0L0,2.654Z" style="fill:white;fill-rule:nonzero;"/>
        </g>
        <g transform="matrix(1,0,0,1,473.759,78.9901)">
            <path d="M0,-42.545L-9.137,-42.545L-9.137,-37.553L-19.799,-37.547L-19.799,-42.545L-28.933,-42.545L-28.933,-37.545L-39.592,-37.54L-39.592,-42.545L-48.73,-42.545L-48.76,-33.537L-40.97,-27.872L-40.939,0L-7.904,0L-7.904,-0.798L-7.813,-0.798L-7.813,-27.854L-0.021,-33.557L-0.021,-33.806L0,-33.806L0,-42.545Z" style="fill:white;fill-rule:nonzero;"/>
        </g>
        <g transform="matrix(-1,0,0,1,282.324,105.198)">
            <path d="M-31.774,-19.514L0,-19.514L-15.766,0L-16.011,0L-31.774,-19.514Z" style="fill:white;fill-rule:nonzero;"/>
        </g>
        <g transform="matrix(-1,0,0,1,321.324,105.198)">
            <path d="M-29.452,-19.514L0.002,-19.514L15.742,0L-45.194,0L-29.452,-19.514Z" style="fill:white;fill-rule:nonzero;"/>
        </g>
        <g transform="matrix(0,-1,-1,0,266.644,58.2675)">
            <rect x="-20.723" y="-8.271" width="12.452" height="28.994" style="fill:white;"/>
        </g>
        <g transform="matrix(1,0,0,1,222.488,85.684)">
            <path d="M0,19.514L0.186,19.514L15.949,0L-15.765,0L0,19.514Z" style="fill:white;fill-rule:nonzero;"/>
        </g>
        <g transform="matrix(1,0,0,1,314.81,36.4455)">
            <path d="M0,42.545L-0.024,14.691L7.768,8.987L7.768,8.739L7.792,8.739L7.792,0L-1.344,0L-1.344,4.992L-12.007,4.998L-12.007,0L-21.142,0L-21.142,5L-31.801,5.004L-31.801,0L-40.937,0L-40.971,9.007L-33.179,14.673L-33.202,42.545L0,42.545Z" style="fill:white;fill-rule:nonzero;"/>
        </g>
        <g transform="matrix(1,0,0,1,239.227,36.4455)">
            <path d="M0,42.545L-0.02,14.691L7.771,8.987L7.771,8.739L7.795,8.739L7.795,0L-1.34,0L-1.34,4.992L-12.003,4.998L-12.003,0L-21.138,0L-21.138,5L-31.798,5.004L-31.798,0L-40.933,0L-40.966,9.007L-33.174,14.673L-33.202,42.545L0,42.545Z" style="fill:white;fill-rule:nonzero;"/>
        </g>
        <g transform="matrix(0,-1,-1,0,342.219,58.275)">
            <rect x="-20.716" y="-8.289" width="12.427" height="29.004" style="fill:white;"/>
        </g>
        <g transform="matrix(-1,0,0,1,245.663,105.198)">
            <path d="M-29.435,-19.514L0.001,-19.514L15.741,0L-45.176,0L-29.435,-19.514Z" style="fill:white;fill-rule:nonzero;"/>
        </g>
        <g transform="matrix(0,-1,-1,0,191.096,58.2765)">
            <rect x="-20.714" y="-8.236" width="12.478" height="28.95" style="fill:white;"/>
        </g>
        <g transform="matrix(1,0,0,1,390.362,36.4455)">
            <path d="M0,42.545L0.003,14.691L7.794,8.987L7.794,8.739L7.818,8.739L7.818,0L-1.316,0L-1.316,4.992L-11.98,4.998L-11.98,0L-21.114,0L-21.114,5L-31.773,5.004L-31.773,0L-40.91,0L-40.943,9.007L-33.151,14.673L-33.161,42.545L0,42.545Z" style="fill:white;fill-rule:nonzero;"/>
        </g>
        <g transform="matrix(-1,0,0,1,358.001,105.198)">
            <path d="M-31.755,-19.514L0,-19.514L-15.769,0L-15.992,0L-31.755,-19.514Z" style="fill:white;fill-rule:nonzero;"/>
        </g>
        <g transform="matrix(1,0,0,1,0,-582.028)">
            <rect x="147.099" y="693.92" width="302.149" height="36.078" style="fill:white;"/>
        </g>
        <g transform="matrix(1,0,0,1,381.243,85.684)">
            <path d="M0,19.514L60.718,19.514L44.977,0L15.74,0L0,19.514Z" style="fill:white;fill-rule:nonzero;"/>
        </g>
        <g transform="matrix(1,0,0,1,0,-509.835)">
            <rect x="147.099" y="668.763" width="302.149" height="14.199" style="fill:white;"/>
        </g>
        <g transform="matrix(0,-1,-1,0,417.791,58.2545)">
            <rect x="-20.736" y="-8.336" width="12.4" height="29.072" style="fill:white;"/>
        </g>
        <g transform="matrix(-0.627847,-0.778337,-0.778337,0.627847,174.239,66.0806)">
            <path d="M-56.188,-7.352L-31.116,-7.352L-13.399,14.613L-18.704,39.117L-56.188,-7.352Z" style="fill:white;fill-rule:nonzero;"/>
        </g>
        <g transform="matrix(1,0,0,1,163.689,36.4455)">
            <path d="M0,42.545L-0.061,14.691L7.731,8.987L7.731,8.739L7.755,8.739L7.755,0L-1.38,0L-1.38,4.992L-12.043,4.998L-12.043,0L-21.179,0L-21.179,5L-31.838,5.004L-31.838,0L-40.973,0L-41.007,9.007L-33.215,14.673L-33.182,42.545L0,42.545Z" style="fill:white;fill-rule:nonzero;"/>
        </g>
        <g transform="matrix(1,0,0,1,162.778,105.166)">
            <path d="M0,-19.482L-31.476,-19.482L-15.738,0L0,-19.482Z" style="fill:white;fill-rule:nonzero;"/>
        </g>
        <g transform="matrix(1,0,0,1,147.106,105.259)">
            <path d="M0,-0.011L0.008,0L0.008,-0.011L0,-0.011Z" style="fill:white;fill-rule:nonzero;"/>
        </g>
        <g transform="matrix(1,0,0,1,433.445,105.217)">
            <path d="M0,-19.533L15.765,-0.019L15.803,-0.019L15.803,-2.673L15.826,-0.019L15.826,0L15.843,-0.019L31.627,-19.533L0,-19.533Z" style="fill:white;fill-rule:nonzero;"/>
        </g>
        <g transform="matrix(1,0,0,1,147.106,105.259)">
            <path d="M0,-0.011L0.008,-0.011L0.008,0L0,-0.011Z" style="fill:white;fill-rule:nonzero;"/>
        </g>
        <g transform="matrix(1,0,0,1,449.286,568.188)">
            <path d="M0,-388.019L-302.209,-388.019L-302.209,-143.196C-302.204,-143.199 -302.19,-143.202 -302.185,-143.205C-302.16,-126.785 -302.125,-102.432 -302.125,-102.276C-302.125,-45.212 -232.89,0 -150.405,0C-67.915,0 -0.015,-46.529 -0.015,-103.592C-0.015,-104.834 -0.009,-127.495 -0.005,-144.846C-0.004,-144.845 -0.001,-144.845 0,-144.844L0,-388.019ZM-7.311,-380.708L-7.311,-156.094L-7.313,-156.095L-7.315,-144.848L-7.325,-103.592C-7.325,-78.5 -21.919,-54.645 -48.419,-36.421C-75.715,-17.65 -111.935,-7.312 -150.405,-7.312C-189.112,-7.312 -225.596,-17.436 -253.138,-35.82C-280.013,-53.759 -294.814,-77.361 -294.814,-102.276C-294.814,-102.432 -294.85,-126.79 -294.874,-143.215L-294.891,-155.511L-294.898,-155.507L-294.898,-380.708L-7.311,-380.708" style="fill:white;fill-rule:nonzero;"/>
        </g>
    </g>
</svg>
