<?xml version="1.0" encoding="UTF-8" standalone="no"?>
<!DOCTYPE svg PUBLIC "-//W3C//DTD SVG 1.1//EN" "http://www.w3.org/Graphics/SVG/1.1/DTD/svg11.dtd">
<svg width="100%" height="100%" viewBox="0 0 3113 942" version="1.1" xmlns="http://www.w3.org/2000/svg" xmlns:xlink="http://www.w3.org/1999/xlink" xml:space="preserve" xmlns:serif="http://www.serif.com/" style="fill-rule:evenodd;clip-rule:evenodd;stroke-linejoin:round;stroke-miterlimit:2;">
    <g transform="matrix(4.16667,0,0,4.16667,0,0)">
        <path d="M166.181,30.106L109.114,81.844C109.114,81.844 94.571,63.021 70.428,42.671C47.365,23.243 17.329,23.223 5.298,24.856C2.099,25.286 0,26.271 0,26.271L0.158,2.203C0.158,2.203 27.601,-0.095 58.195,9.954C85.387,18.89 109.755,50.183 109.755,50.183L166.181,0.525L166.181,30.106Z" style="fill:white;"/>
        <path d="M0.158,89.656L0,65.161C0,65.161 28.036,59.257 49.42,74.573C65.86,86.343 85.049,111.467 89.435,116.072C93.71,120.57 107.405,135.334 120.028,141.539C129.57,146.231 139.131,149.187 156.148,148.189C162.049,147.838 166.251,145.654 166.251,145.654L166.251,169.244C166.251,169.244 163.263,170.82 158.71,171.379C148.6,172.615 130.035,172.046 113.959,164.274C101.578,158.299 90.668,147.1 82.164,139.133C79.844,136.973 52.579,104.366 37.43,93.664C29.505,88.065 18.595,85.499 11.551,85.9C5.338,86.254 0.158,89.656 0.158,89.656Z" style="fill:white;"/>
        <path d="M57.126,123.672C57.126,123.672 70.818,140.677 95.627,161.466C114.861,177.585 139.927,181.441 158.86,179.216C163.51,178.664 166.243,176.943 166.243,176.943L166.243,199.728C166.243,199.728 162.389,201.662 157.683,201.873C142.693,202.563 125.965,200.696 106.897,193.436C82.431,184.121 56.059,154.376 56.059,154.376L0.08,203.659L0.158,173.978L57.126,123.672Z" style="fill:white;"/>
        <path d="M166.113,114.609L166.194,136.992C166.194,136.992 164.082,138.615 160.733,139.304C151.588,141.165 133.922,141.432 118.535,130.415C102.097,118.636 77.03,89.112 73.169,85.272C69.312,81.431 59.442,69.729 46.139,62.631C32.838,55.539 14.868,55.627 5.781,56.248C2.2,56.493 0.158,57.243 0.158,57.243L0.158,33.654C0.158,33.654 28.243,28.355 52.051,40.081C64.391,46.155 76.624,57.824 83.231,65.376C85.321,67.759 113.43,99.993 128.582,110.696C136.505,116.291 147.419,118.866 154.467,118.46C160.675,118.102 166.113,114.609 166.113,114.609Z" style="fill:white;"/>
        <path d="M239.733,39.642C248.588,39.642 254.108,34.006 254.108,24.921C254.108,18.94 251.809,14.686 247.668,12.385C245.483,11.235 242.838,10.545 236.513,10.545L223.402,10.545L223.402,39.642L239.733,39.642ZM212.017,0.655L236.858,0.655C245.368,0.655 248.934,1.345 252.039,2.495C260.319,5.6 265.724,13.766 265.724,24.461C265.724,34.812 259.974,43.552 251.119,46.427L251.119,46.657C251.119,46.657 252.039,47.692 253.534,50.337L270.784,81.849L257.903,81.849L240.768,49.532L223.402,49.532L223.402,81.849L212.017,81.849L212.017,0.655Z" style="fill:white;fill-rule:nonzero;"/>
        <path d="M318.002,45.967C317.657,35.961 311.447,31.131 303.972,31.131C295.461,31.131 288.561,36.421 286.951,45.967L318.002,45.967ZM304.202,22.276C320.647,22.276 329.388,34.466 329.388,49.532C329.388,51.027 329.043,54.362 329.043,54.362L286.606,54.362C287.181,67.128 296.267,73.568 306.617,73.568C316.623,73.568 323.868,66.783 323.868,66.783L328.468,74.948C328.468,74.948 319.842,83.229 305.927,83.229C287.641,83.229 275.105,70.003 275.105,52.753C275.105,34.236 287.641,22.276 304.202,22.276Z" style="fill:white;fill-rule:nonzero;"/>
        <path d="M383.242,51.487C383.242,36.307 375.88,31.936 366.795,31.936C356.675,31.936 350.925,39.296 350.925,51.142C350.925,63.218 357.365,71.498 367.831,71.498C375.88,71.498 383.242,66.668 383.242,51.487ZM364.61,96.339C374.731,96.339 383.011,91.854 383.011,80.009L383.011,75.753C383.011,73.913 383.126,72.073 383.126,72.073L382.896,72.073C379.447,77.823 374.041,81.159 365.646,81.159C349.43,81.159 339.654,68.163 339.654,51.372C339.654,34.696 348.97,22.276 365.07,22.276C379.101,22.276 383.357,30.901 383.357,30.901L383.586,30.901C383.586,30.901 383.471,30.096 383.471,29.061L383.471,22.276L394.167,22.276L394.167,79.434C394.167,98.64 379.561,106 364.84,106C357.825,106 350.58,104.045 344.944,101.169L348.625,92.429C348.625,92.429 355.87,96.339 364.61,96.339Z" style="fill:white;fill-rule:nonzero;"/>
        <path d="M460.289,73.568C471.329,73.568 480.299,64.828 480.299,52.637C480.299,40.562 471.329,31.936 460.289,31.936C449.363,31.936 440.278,40.562 440.278,52.637C440.278,64.828 449.363,73.568 460.289,73.568ZM460.289,22.276C477.654,22.276 491.685,35.042 491.685,52.637C491.685,70.348 477.654,83.229 460.289,83.229C442.922,83.229 428.892,70.348 428.892,52.637C428.892,35.042 442.922,22.276 460.289,22.276Z" style="fill:white;fill-rule:nonzero;"/>
        <path d="M502.031,22.276L512.841,22.276L512.841,31.361C512.841,33.661 512.612,35.616 512.612,35.616L512.841,35.616C515.141,30.556 522.042,22.276 534.693,22.276C548.378,22.276 554.704,29.751 554.704,44.587L554.704,81.849L543.548,81.849L543.548,47.117C543.548,38.952 541.823,32.511 532.507,32.511C523.651,32.511 516.521,38.377 514.107,46.772C513.417,49.072 513.185,51.717 513.185,54.592L513.185,81.849L502.031,81.849L502.031,22.276Z" style="fill:white;fill-rule:nonzero;"/>
        <path d="M251.313,119.275C270.749,119.275 280.87,129.049 280.87,129.049L275.119,137.56C275.119,137.56 266.034,129.626 252.233,129.626C233.142,129.626 221.642,143.541 221.642,160.907C221.642,179.767 234.522,192.762 251.543,192.762C265.574,192.762 274.544,182.642 274.544,182.642L274.544,170.912L261.319,170.912L261.319,161.021L284.895,161.021L284.81,202.326L274.935,202.326L274.889,196.788C274.889,195.063 275.004,193.338 275.004,193.338L274.774,193.338C274.774,193.338 265.919,203.228 249.818,203.228C227.967,203.228 209.911,185.977 209.911,161.136C209.911,137.675 227.622,119.275 251.313,119.275Z" style="fill:white;fill-rule:nonzero;"/>
        <path d="M319.046,194.258C328.477,194.258 334.572,184.368 334.572,175.742L334.572,173.902L331.697,173.902C323.302,173.902 308.121,174.477 308.121,184.942C308.121,189.658 311.801,194.258 319.046,194.258ZM331.927,165.506L334.457,165.506L334.457,164.471C334.457,154.926 329.052,151.706 321.691,151.706C312.721,151.706 305.476,157.34 305.476,157.34L300.875,149.176C300.875,149.176 309.271,142.276 322.612,142.276C337.333,142.276 345.613,150.326 345.613,165.046L345.56,202.326L335.186,202.326L335.262,196.328C335.262,193.682 335.492,191.727 335.492,191.727L335.262,191.727C335.262,191.727 330.547,203.228 316.631,203.228C306.626,203.228 296.851,197.133 296.851,185.518C296.851,166.311 322.151,165.506 331.927,165.506Z" style="fill:white;fill-rule:nonzero;"/>
        <path d="M352.561,142.909L364.185,142.909L378.617,182.987C379.767,186.208 380.457,190.922 380.572,190.922L380.802,190.922C380.917,190.922 381.722,186.208 382.872,182.987L397.31,142.909L408.81,142.909L386.935,202.326L374.686,202.326L352.561,142.909Z" style="fill:white;fill-rule:nonzero;"/>
        <path d="M418.831,120.655L429.986,120.655L429.986,184.022C429.986,191.038 432.747,192.303 436.197,192.303C437.232,192.303 438.152,192.188 438.152,192.188L438.152,202.079C438.152,202.079 436.426,202.308 434.471,202.308C428.146,202.308 418.831,200.583 418.831,185.977L418.831,120.655Z" style="fill:white;fill-rule:nonzero;"/>
        <path d="M489.212,165.966C488.868,155.962 482.657,151.131 475.182,151.131C466.671,151.131 459.771,156.421 458.161,165.966L489.212,165.966ZM475.412,142.276C491.858,142.276 500.598,154.465 500.598,169.532C500.598,171.027 500.252,174.362 500.252,174.362L457.816,174.362C458.391,187.128 467.476,193.568 477.827,193.568C487.833,193.568 495.078,186.782 495.078,186.782L499.678,194.948C499.678,194.948 491.052,203.228 477.137,203.228C458.851,203.228 446.315,190.003 446.315,172.753C446.315,154.236 458.851,142.276 475.412,142.276Z" style="fill:white;fill-rule:nonzero;"/>
        <path d="M542.077,193.682C551.277,193.682 558.867,186.092 558.867,172.867C558.867,160.216 552.082,152.051 542.421,152.051C533.681,152.051 525.63,158.146 525.63,172.982C525.63,183.333 531.036,193.682 542.077,193.682ZM514.82,120.655L525.975,120.655L525.975,147.221C525.975,150.096 525.746,152.166 525.746,152.166L525.975,152.166C525.975,152.166 530.92,142.276 544.606,142.276C560.248,142.276 570.137,154.696 570.137,172.753C570.137,191.268 558.982,203.228 543.686,203.228C530.691,203.228 525.401,193.223 525.401,193.223L525.17,193.223C525.17,193.223 525.401,195.063 525.401,197.592L525.433,202.326L514.81,202.326L514.82,120.655Z" style="fill:white;fill-rule:nonzero;"/>
        <path d="M611.19,193.568C622.23,193.568 631.201,184.827 631.201,172.637C631.201,160.561 622.23,151.936 611.19,151.936C600.264,151.936 591.179,160.561 591.179,172.637C591.179,184.827 600.264,193.568 611.19,193.568ZM611.19,142.276C628.555,142.276 642.586,155.042 642.586,172.637C642.586,190.348 628.555,203.228 611.19,203.228C593.824,203.228 579.793,190.348 579.793,172.637C579.793,155.042 593.824,142.276 611.19,142.276Z" style="fill:white;fill-rule:nonzero;"/>
        <path d="M653.507,142.909L664.318,142.909L664.318,153.776C664.318,156.191 664.088,158.146 664.088,158.146L664.318,158.146C666.963,149.635 673.749,142.965 682.719,142.965C684.214,142.965 685.594,143.196 685.594,143.196L685.594,154.236C685.594,154.236 684.099,153.891 682.374,153.891C675.244,153.891 668.688,158.952 666.043,167.577C665.008,170.912 664.663,174.477 664.663,178.042L664.559,202.326L653.559,202.326L653.507,142.909Z" style="fill:white;fill-rule:nonzero;"/>
        <path d="M735.964,171.487C735.964,156.306 728.604,151.936 719.519,151.936C709.398,151.936 703.648,159.296 703.648,171.141C703.648,183.217 710.088,191.498 720.554,191.498C728.604,191.498 735.964,186.668 735.964,171.487ZM717.333,216.338C727.454,216.338 735.735,211.854 735.735,200.008L735.735,195.753C735.735,193.913 735.849,192.073 735.849,192.073L735.62,192.073C732.169,197.823 726.764,201.159 718.369,201.159C702.153,201.159 692.377,188.163 692.377,171.372C692.377,154.696 701.693,142.276 717.793,142.276C731.825,142.276 736.08,150.901 736.08,150.901L736.309,150.901C736.309,150.901 736.195,150.096 736.195,149.061L736.195,142.909L746.89,142.909L746.89,199.433C746.89,218.639 732.285,226 717.564,226C710.548,226 703.303,224.045 697.667,221.169L701.348,212.428C701.348,212.428 708.593,216.338 717.333,216.338Z" style="fill:white;fill-rule:nonzero;"/>
        <path d="M417.635,24.655C416.351,21.942 411.873,22.237 411.873,22.237C408.628,22.179 407.276,23.702 406.808,24.446C406.787,24.494 406.544,24.9 406.583,25.519L406.583,81.849L417.738,81.849L417.738,25.304C417.722,25.156 417.732,24.9 417.635,24.655Z" style="fill:white;"/>
        <path d="M418.39,9.931C418.39,13.48 415.511,16.357 411.963,16.357C408.413,16.357 405.535,13.48 405.535,9.931C405.535,6.381 408.413,3.503 411.963,3.503C415.511,3.503 418.39,6.381 418.39,9.931Z" style="fill:white;"/>
        <path d="M335.807,129.805C335.807,133.008 333.208,135.607 330.005,135.607C326.799,135.607 324.202,133.008 324.202,129.805C324.202,126.601 326.799,124.003 330.005,124.003C333.208,124.003 335.807,126.601 335.807,129.805Z" style="fill:white;"/>
        <path d="M319.307,129.805C319.307,133.008 316.708,135.607 313.505,135.607C310.299,135.607 307.702,133.008 307.702,129.805C307.702,126.601 310.299,124.003 313.505,124.003C316.708,124.003 319.307,126.601 319.307,129.805Z" style="fill:white;"/>
    </g>
</svg>
